<svg xmlns="http://www.w3.org/2000/svg" width="469" height="513" viewBox="0 0 469 513">
<g>
<path d="M 103.50 0.00 L 469.00 0.00 L 338.25 0.22 C277.78,0.32 237.54,0.57 237.54,0.83 C237.54,0.87 238.98,0.92 242.00,0.97 C273.92,1.46 276.95,1.66 282.50,3.64 C285.80,4.81 290.98,6.48 294.00,7.35 C302.75,9.85 326.72,16.86 336.00,19.63 C358.47,26.35 370.05,42.01 368.75,63.94 C368.28,71.83 367.72,73.66 361.62,87.24 L 355.00 101.97 L 354.99 172.74 C354.99,239.21 354.87,243.99 353.05,251.56 C351.99,255.99 350.19,261.99 349.04,264.89 C344.55,276.28 332.20,290.67 320.95,297.61 C317.68,299.63 315.00,301.70 315.00,302.21 C315.00,303.41 329.82,323.72 332.67,326.44 C333.87,327.57 340.17,330.71 346.67,333.40 C353.18,336.10 363.03,340.27 368.57,342.68 C374.11,345.08 381.09,347.34 384.07,347.69 C390.03,348.39 396.55,352.02 397.56,355.20 C397.92,356.33 400.70,358.36 404.05,359.95 C410.99,363.23 415.59,367.01 422.81,375.36 C435.48,390.02 438.46,398.46 445.33,439.00 C454.45,492.81 457.11,510.01 456.48,511.03 C456.15,511.56 453.21,512.00 449.93,512.00 C442.52,512.00 441.94,511.40 432.73,494.20 C429.00,487.24 425.52,481.12 424.99,480.59 C424.38,479.98 422.85,480.95 420.77,483.28 C417.33,487.12 408.99,492.00 405.85,492.00 C403.52,492.00 403.54,492.66 406.07,501.02 C408.87,510.22 407.99,512.00 400.62,512.00 C393.96,512.00 392.60,510.62 390.15,501.42 C387.92,493.01 383.42,482.21 377.69,471.50 C373.70,464.03 373.12,463.41 368.96,462.19 C362.26,460.23 356.83,457.57 353.04,454.38 C348.09,450.21 342.49,440.99 339.54,432.11 C335.96,421.36 330.57,416.73 309.42,406.17 C295.16,399.06 292.98,398.24 278.00,394.40 C257.63,389.18 236.27,388.05 216.50,391.15 C193.55,394.76 174.92,401.69 154.83,414.10 C143.87,420.88 141.54,423.27 140.55,428.74 C140.17,430.81 138.09,436.20 135.92,440.73 C132.75,447.32 130.82,449.91 126.19,453.76 C120.97,458.10 117.59,459.80 108.62,462.60 C106.28,463.33 104.65,465.55 99.90,474.50 C96.69,480.55 92.66,490.00 90.93,495.50 C87.41,506.76 86.39,510.34 84.14,511.48 C83.08,512.01 81.76,512.01 79.79,512.00 C79.58,512.00 79.36,512.00 79.14,512.00 C70.88,512.00 70.41,511.15 73.01,500.98 C74.16,496.46 74.97,492.69 74.80,492.60 C74.64,492.51 72.70,491.82 70.50,491.07 C65.52,489.38 58.37,484.57 56.98,481.96 C56.40,480.88 55.38,480.00 54.71,480.01 C54.05,480.02 50.17,486.43 46.10,494.26 C42.04,502.09 38.03,509.29 37.20,510.25 C35.33,512.42 23.25,512.81 22.45,510.74 C22.19,510.04 24.05,497.33 26.60,482.49 C29.15,467.64 31.44,454.15 31.68,452.50 C34.05,436.41 36.16,423.89 36.99,421.01 C37.55,419.09 38.00,416.30 38.00,414.81 C38.00,410.05 43.96,394.13 48.63,386.45 C56.80,372.98 67.97,362.55 81.50,355.76 C88.75,352.11 118.79,339.05 131.77,333.89 C147.02,327.83 145.10,329.60 161.81,306.24 L 165.11 301.62 L 161.31 299.41 C144.49,289.65 134.25,277.16 126.69,257.18 C124.58,251.58 124.54,250.40 124.23,176.61 L 123.90 101.72 L 118.60 90.11 C110.56,72.49 109.70,69.30 110.17,58.65 C110.51,50.99 111.08,48.44 113.67,43.00 C117.59,34.76 124.44,27.92 133.10,23.59 C136.82,21.72 140.81,19.32 141.96,18.25 C143.61,16.72 146.10,16.16 153.62,15.67 C162.08,15.11 164.07,14.59 170.84,11.17 C175.84,8.63 180.43,7.10 184.05,6.74 C189.34,6.21 207.00,1.36 207.00,0.44 C207.00,0.20 160.43,0.00 103.50,0.00 ZM 232.50 307.53 C234.70,308.25 237.66,308.88 239.08,308.92 C241.47,308.99 259.53,303.90 273.50,299.21 C279.62,297.15 280.97,296.74 293.91,293.03 C311.87,287.88 325.08,278.29 332.69,264.89 C339.58,252.74 340.00,249.36 340.00,205.44 C340.00,184.30 339.74,167.00 339.43,167.00 C339.12,167.00 337.43,168.07 335.68,169.39 C330.69,173.13 324.61,175.88 317.78,177.49 C312.54,178.72 299.59,178.97 239.80,178.99 C190.21,179.00 166.47,178.65 162.83,177.87 C156.19,176.45 149.96,173.79 144.31,169.97 C141.88,168.34 139.70,167.00 139.45,167.00 C139.20,167.00 139.00,184.46 139.00,205.79 C139.00,248.22 139.28,250.86 144.98,262.50 C148.83,270.36 157.52,279.89 164.78,284.21 C171.06,287.95 180.17,291.57 192.00,295.01 C199.88,297.31 225.68,305.28 232.50,307.53 ZM 130.63 80.40 L 136.26 93.00 L 342.03 93.00 L 344.01 89.75 C345.09,87.96 347.79,81.90 349.99,76.28 C354.84,63.93 355.22,57.81 351.64,49.73 C347.09,39.44 341.30,36.51 305.67,26.50 C298.61,24.51 291.64,22.42 290.17,21.84 C288.70,21.26 284.35,19.99 280.50,19.01 C276.65,18.02 268.55,15.75 262.50,13.95 C253.82,11.36 249.18,10.59 240.50,10.26 C229.55,9.85 229.41,9.88 210.00,15.54 C199.27,18.67 189.15,21.59 187.50,22.03 C183.72,23.04 171.83,27.48 169.30,28.84 C168.25,29.40 163.36,30.17 158.44,30.54 C152.97,30.96 148.53,31.85 147.00,32.84 C145.62,33.72 142.48,35.42 140.00,36.60 C134.54,39.22 128.64,45.19 126.55,50.22 C125.66,52.36 125.00,56.88 125.00,60.87 C125.00,67.13 125.54,69.02 130.63,80.40 ZM 425.06 446.23 C428.60,453.78 431.90,459.96 432.38,459.98 C433.49,460.01 432.58,451.69 429.38,432.50 C426.16,413.14 424.68,407.50 420.48,398.67 C416.37,390.00 405.77,377.53 401.77,376.66 C398.50,375.94 389.30,369.80 386.50,366.46 C384.57,364.16 379.34,361.83 371.98,359.98 C370.04,359.49 359.95,355.47 349.55,351.05 C339.15,346.62 329.85,343.00 328.88,343.00 C327.33,343.00 316.38,349.24 294.80,362.41 C291.12,364.66 284.48,368.67 280.04,371.33 C275.61,373.99 272.20,376.51 272.46,376.94 C272.73,377.37 274.87,377.99 277.22,378.33 C281.35,378.91 293.90,382.80 304.75,386.86 C311.27,389.30 330.41,399.35 334.64,402.56 L 337.78 404.94 L 340.64 399.23 C344.48,391.56 348.08,389.52 357.47,389.69 C370.65,389.92 387.59,398.21 401.53,411.26 C411.53,420.61 416.56,428.08 425.06,446.23 ZM 46.00 457.14 C46.00,458.71 46.22,460.00 46.49,460.00 C46.76,460.00 50.17,453.59 54.08,445.75 C63.20,427.47 68.34,419.81 76.87,411.76 C85.68,403.45 91.12,399.74 101.54,394.93 C114.61,388.89 126.66,387.92 133.45,392.38 C134.84,393.29 137.12,396.28 138.51,399.02 C139.90,401.76 141.39,404.00 141.82,404.00 C142.26,404.00 144.16,402.83 146.06,401.41 C150.56,398.02 173.70,386.79 182.00,383.96 C185.57,382.74 192.30,380.74 196.95,379.51 C201.60,378.28 205.54,376.87 205.71,376.37 C205.88,375.87 199.60,371.69 191.76,367.08 C183.91,362.46 175.93,357.75 174.01,356.59 C172.10,355.44 169.77,354.05 168.84,353.50 C167.91,352.95 163.63,350.33 159.33,347.68 C153.67,344.19 150.81,342.99 149.00,343.35 C145.22,344.11 105.97,360.74 89.07,368.75 C81.17,372.50 78.30,374.56 71.42,381.44 C64.55,388.31 62.44,391.24 58.58,399.27 C54.49,407.80 53.63,410.85 51.01,426.19 C49.39,435.71 47.60,445.92 47.03,448.89 C46.46,451.85 46.00,455.56 46.00,457.14 ZM 162.99 162.08 C164.37,162.51 199.48,162.78 241.00,162.68 C247.37,162.66 253.20,162.65 258.56,162.64 C309.86,162.55 317.35,162.54 322.84,159.22 C324.36,158.31 325.72,157.14 327.80,155.65 C331.91,152.73 339.00,142.99 339.00,140.28 C339.00,139.25 319.82,139.00 240.00,139.00 C229.74,139.00 220.52,138.99 212.21,138.98 C154.38,138.94 141.64,138.92 140.90,141.90 C140.69,142.74 141.44,143.82 142.40,145.21 C142.88,145.91 143.43,146.70 143.93,147.57 C147.66,154.08 154.86,159.56 162.99,162.08 ZM 263.11 467.15 L 263.41 511.50 L 257.53 511.50 C250.62,511.50 249.30,510.50 248.60,504.74 C247.66,496.94 247.12,451.74 247.72,430.66 C248.20,413.75 248.60,409.54 249.86,408.28 C251.11,407.03 252.98,406.84 259.48,407.30 C279.71,408.73 305.43,419.24 325.00,434.08 C337.32,443.42 353.94,461.69 360.02,472.55 C361.23,474.72 363.28,478.30 364.56,480.50 C368.73,487.65 375.13,505.06 374.80,508.37 C374.50,511.47 374.44,511.50 368.26,511.80 C362.16,512.09 361.99,512.03 360.02,508.80 C358.91,506.98 358.01,504.93 358.00,504.23 C358.00,501.82 349.76,485.48 344.27,477.00 C337.98,467.26 320.81,449.67 311.37,443.29 C299.27,435.11 286.57,429.35 272.00,425.42 C268.98,424.60 265.67,423.68 264.66,423.37 C262.88,422.83 262.83,424.46 263.11,467.15 ZM 117.78 510.75 C116.71,512.05 105.87,512.54 104.67,511.33 C102.61,509.28 104.98,500.58 111.37,486.65 C125.67,455.51 152.50,429.72 184.28,416.56 C196.11,411.66 209.91,408.05 219.50,407.35 C220.43,407.28 221.28,407.19 222.07,407.11 C224.71,406.85 226.60,406.66 227.97,407.43 C231.48,409.39 231.45,417.67 231.35,447.21 C231.34,450.64 231.33,454.36 231.32,458.39 C231.32,460.73 231.31,462.97 231.31,465.12 C231.25,500.86 231.24,509.55 227.63,511.46 C226.47,512.07 224.94,511.98 222.92,511.86 C222.54,511.84 222.15,511.82 221.74,511.80 L 215.57 511.50 L 215.88 467.75 L 216.19 424.00 L 213.70 424.00 C209.11,424.00 193.57,428.99 185.00,433.21 C155.49,447.75 134.58,470.23 122.42,500.50 C120.43,505.45 118.34,510.06 117.78,510.75 ZM 145.71 123.32 C149.44,123.55 155.83,123.57 159.90,123.37 C163.97,123.16 206.18,123.00 253.69,123.00 L 340.09 123.00 L 339.79 115.75 L 339.50 108.50 L 139.50 108.50 L 139.21 115.70 L 138.91 122.91 ZM 187.50 346.51 C200.70,354.44 211.84,360.94 212.26,360.96 C212.68,360.98 213.90,359.09 214.97,356.75 C218.37,349.33 228.00,325.75 228.00,324.86 C228.00,324.39 227.12,324.00 226.05,324.00 C222.19,324.00 196.17,314.90 184.07,309.32 C181.71,308.23 180.16,308.04 179.10,308.71 C176.74,310.20 163.05,329.32 163.29,330.79 C163.40,331.50 174.30,338.57 187.50,346.51 ZM 264.40 357.25 C265.29,359.31 266.31,361.00 266.66,361.00 C268.36,361.00 316.00,331.68 316.00,330.64 C316.00,329.98 313.02,325.40 309.39,320.47 C305.75,315.54 302.15,310.61 301.39,309.53 C300.21,307.85 299.60,307.72 297.25,308.67 C282.39,314.66 263.60,321.42 258.18,322.72 C254.50,323.60 251.39,324.40 251.26,324.49 C251.03,324.64 260.70,348.75 264.40,357.25 ZM 366.50 445.16 C370.54,447.63 379.19,447.55 384.81,445.00 C390.97,442.20 401.00,434.96 401.00,433.31 C401.00,432.53 397.74,428.66 393.75,424.69 C382.71,413.71 366.92,405.00 358.06,405.00 C353.22,405.00 352.58,406.44 352.73,417.00 C352.90,429.35 358.14,440.07 366.50,445.16 ZM 93.02 443.94 C99.70,447.09 106.51,447.91 111.18,446.11 C114.81,444.72 121.02,438.12 122.95,433.61 C125.82,426.91 127.15,417.06 126.00,411.02 C125.45,408.11 125.00,405.56 125.00,405.36 C125.00,404.15 117.07,405.37 111.63,407.41 C100.88,411.46 86.75,421.65 81.24,429.31 L 77.98 433.85 L 82.27 437.36 C84.62,439.29 89.46,442.25 93.02,443.94 ZM 257.23 268.21 C251.44,271.06 249.52,271.48 241.08,271.74 C230.33,272.08 224.63,270.54 215.92,264.95 C205.49,258.26 202.27,251.30 207.63,247.07 C211.56,243.99 214.37,244.51 220.87,249.56 C233.57,259.42 245.94,259.40 258.02,249.48 C261.87,246.32 264.40,245.00 266.57,245.00 C270.44,245.00 274.00,248.59 274.00,252.51 C274.00,256.40 265.99,263.90 257.23,268.21 ZM 225.35 373.48 C225.67,374.29 229.95,374.61 239.65,374.53 C252.76,374.43 253.49,374.32 253.36,372.46 C253.15,369.32 240.60,339.72 239.50,339.75 C238.95,339.77 237.41,342.42 236.07,345.64 C234.73,348.86 231.67,356.18 229.27,361.91 C226.87,367.63 225.11,372.84 225.35,373.48 ZM 393.72 469.01 C398.35,477.88 398.51,478.05 401.47,477.41 C408.87,475.83 413.37,470.26 413.45,462.62 C413.50,457.08 410.55,449.00 408.48,449.00 C407.81,449.00 404.24,451.03 400.55,453.50 C396.86,455.98 392.75,458.28 391.42,458.61 C390.09,458.94 389.00,459.38 389.00,459.59 C389.00,459.79 391.13,464.03 393.72,469.01 ZM 76.50 477.27 C77.60,477.54 79.02,477.82 79.65,477.88 C80.51,477.97 90.00,461.09 90.00,459.48 C90.00,459.34 88.91,458.94 87.58,458.61 C86.25,458.28 82.14,455.98 78.45,453.50 C74.76,451.03 71.35,449.00 70.88,449.00 C69.42,449.00 65.00,458.78 65.00,462.01 C65.00,468.19 70.75,475.83 76.50,477.27 Z" fill="rgb(2,1,3)"/>
<path d="M 235.40 10.11 C236.86,10.13 238.50,10.19 240.50,10.26 C249.18,10.59 253.82,11.36 262.50,13.95 C268.55,15.75 276.65,18.02 280.50,19.01 C284.35,19.99 288.70,21.26 290.17,21.84 C291.64,22.42 298.61,24.51 305.67,26.50 C341.30,36.51 347.09,39.44 351.64,49.73 C355.22,57.81 354.84,63.93 349.99,76.28 C347.79,81.90 345.09,87.96 344.01,89.75 L 342.03 93.00 L 310.66 93.00 L 311.74 89.75 C312.34,87.96 314.51,82.70 316.57,78.05 C319.92,70.49 320.32,68.70 320.36,61.05 C320.40,53.56 320.03,51.69 317.37,46.00 C315.64,42.30 312.65,37.99 310.42,35.99 C303.47,29.77 298.31,27.76 265.50,18.45 C258.90,16.58 250.07,13.91 245.87,12.52 C242.46,11.40 238.21,10.44 235.40,10.11 ZM 336.47 144.27 C336.13,144.95 336.56,144.63 337.43,143.56 C338.56,142.16 339.05,140.97 338.90,140.16 C338.97,140.20 339.00,140.24 339.00,140.28 C339.00,142.99 331.91,152.73 327.80,155.65 C325.72,157.14 324.36,158.31 322.84,159.22 C318.32,161.95 312.45,162.44 281.93,162.58 C288.81,162.46 293.00,162.30 293.00,162.09 C293.00,161.60 294.64,159.23 296.65,156.84 C300.53,152.22 304.97,143.65 304.99,140.75 C305.00,139.10 300.43,139.00 223.00,139.00 C208.95,139.00 197.21,138.98 187.43,138.98 C194.59,138.97 202.81,138.98 212.21,138.98 L 212.21 138.98 C220.52,138.99 229.74,139.00 240.00,139.00 C301.48,139.00 326.98,139.15 335.46,139.69 C335.50,139.99 335.69,140.42 336.01,141.02 C336.61,142.13 336.81,143.59 336.47,144.27 ZM 209.84 15.62 C199.20,18.71 189.15,21.59 187.50,22.03 C189.15,21.59 199.27,18.67 210.00,15.54 C222.64,11.86 227.11,10.56 231.71,10.21 C227.51,10.88 218.80,13.02 209.84,15.62 ZM 140.90 141.90 C140.92,141.82 140.95,141.74 140.99,141.66 C140.98,141.69 140.97,141.73 140.96,141.76 C140.72,142.64 141.48,143.78 142.48,145.28 C142.94,145.97 143.44,146.73 143.93,147.57 C143.43,146.70 142.88,145.91 142.40,145.21 C141.44,143.82 140.69,142.74 140.90,141.90 ZM 162.99 162.08 C161.59,161.65 160.22,161.12 158.89,160.52 C160.22,161.12 161.60,161.64 162.99,162.07 C163.09,162.10 163.28,162.12 163.54,162.15 C163.26,162.13 163.07,162.11 162.99,162.08 ZM 158.89 160.52 C156.57,159.48 154.37,158.20 152.35,156.73 C154.36,158.19 156.56,159.48 158.89,160.52 Z" fill="rgb(28,55,162)"/>
<path d="M 336.47 144.27 C336.81,143.59 336.61,142.13 336.01,141.02 C335.69,140.42 335.50,139.99 335.46,139.69 C337.54,139.82 338.59,139.98 338.90,140.16 C339.05,140.97 338.56,142.16 337.43,143.56 C336.56,144.63 336.13,144.95 336.47,144.27 Z" fill="rgb(37,51,118)"/>
<path d="M 130.63 80.40 C125.54,69.02 125.00,67.13 125.00,60.87 C125.00,56.88 125.66,52.36 126.55,50.22 C128.64,45.19 134.54,39.22 140.00,36.60 C142.48,35.42 145.62,33.72 147.00,32.84 C148.53,31.85 152.97,30.96 158.44,30.54 C163.36,30.17 168.25,29.40 169.30,28.84 C171.83,27.48 183.72,23.04 187.50,22.03 C189.15,21.59 199.20,18.71 209.84,15.62 C218.80,13.02 227.51,10.88 231.71,10.21 C232.88,10.13 234.07,10.10 235.40,10.11 C238.21,10.44 242.46,11.40 245.87,12.52 C250.07,13.91 258.90,16.58 265.50,18.45 C298.31,27.76 303.47,29.77 310.42,35.99 C312.65,37.99 315.64,42.30 317.37,46.00 C320.03,51.69 320.40,53.56 320.36,61.05 C320.32,68.70 319.92,70.49 316.57,78.05 C314.51,82.70 312.34,87.96 311.74,89.75 L 310.66 93.00 L 136.26 93.00 ZM 241.00 162.68 C201.82,162.77 168.35,162.54 163.54,162.15 C163.28,162.12 163.09,162.10 162.99,162.07 C161.60,161.64 160.22,161.12 158.89,160.52 L 158.89 160.52 C156.57,159.48 154.37,158.20 152.35,156.73 C148.83,154.15 145.89,151.00 143.93,147.57 C143.44,146.73 142.94,145.97 142.48,145.28 C141.48,143.78 140.72,142.64 140.96,141.76 C140.97,141.73 140.98,141.69 140.99,141.66 C142.16,139.38 151.80,139.01 187.43,138.98 C197.21,138.98 208.95,139.00 223.00,139.00 C300.43,139.00 305.00,139.10 304.99,140.75 C304.97,143.65 300.53,152.22 296.65,156.84 C294.64,159.23 293.00,161.60 293.00,162.09 C293.00,162.30 288.81,162.46 281.93,162.58 C275.36,162.61 267.65,162.63 258.56,162.64 C253.20,162.65 247.37,162.66 241.00,162.68 Z" fill="rgb(51,76,176)"/>
<path d="M 270.59 0.43 L 276.63 2.18 C271.72,1.49 263.29,1.30 242.00,0.97 C238.98,0.92 237.54,0.87 237.54,0.83 C237.54,0.69 249.66,0.55 270.59,0.43 ZM 319.19 14.67 C321.27,15.28 323.37,15.89 325.50,16.51 C344.11,21.91 345.10,22.29 350.68,26.13 C351.93,26.98 353.11,27.87 354.22,28.79 C349.32,24.87 343.22,21.79 336.00,19.63 C332.19,18.49 325.89,16.64 319.19,14.67 ZM 288.14 5.54 C293.83,7.23 299.98,9.05 306.54,10.97 C301.42,9.48 296.88,8.17 294.00,7.35 C292.44,6.90 290.30,6.24 288.14,5.54 ZM 366.17 45.06 C368.30,50.67 369.16,56.96 368.75,63.94 C369.16,56.99 368.28,50.67 366.17,45.06 Z" fill="rgb(103,106,110)"/>
<path d="M 270.59 0.43 C271.39,0.43 272.19,0.43 273.01,0.42 C273.20,0.65 275.29,1.43 278.35,2.46 C277.82,2.36 277.26,2.26 276.63,2.18 L 276.50 2.14 ZM 305.38 10.64 C308.74,11.62 312.31,12.66 315.83,13.69 C312.68,12.77 309.51,11.84 306.54,10.97 C306.15,10.86 305.77,10.75 305.38,10.64 Z" fill="rgb(128,143,149)"/>
<path d="M 187.50 346.51 C174.30,338.57 163.40,331.50 163.29,330.79 C163.05,329.32 176.74,310.20 179.10,308.71 C180.16,308.04 181.71,308.23 184.07,309.32 C196.17,314.90 222.19,324.00 226.05,324.00 C227.12,324.00 228.00,324.39 228.00,324.86 C228.00,325.75 218.37,349.33 214.97,356.75 C213.90,359.09 212.68,360.98 212.26,360.96 C211.84,360.94 200.70,354.44 187.50,346.51 ZM 264.40 357.25 C260.70,348.75 251.03,324.64 251.26,324.49 C251.39,324.40 254.50,323.60 258.18,322.72 C263.60,321.42 282.39,314.66 297.25,308.67 C299.60,307.72 300.21,307.85 301.39,309.53 C302.15,310.61 305.75,315.54 309.39,320.47 C313.02,325.40 316.00,329.98 316.00,330.64 C316.00,331.68 268.36,361.00 266.66,361.00 C266.31,361.00 265.29,359.31 264.40,357.25 ZM 72.60 511.00 C72.35,510.85 72.15,510.69 72.00,510.50 C71.00,509.30 67.95,509.00 56.63,508.98 C48.86,508.98 41.86,508.56 41.08,508.07 C40.07,507.43 39.10,507.88 37.75,509.58 C37.59,509.80 37.42,510.00 37.26,510.18 C38.21,508.96 42.13,501.92 46.10,494.26 C50.17,486.43 54.05,480.02 54.71,480.01 C55.38,480.00 56.40,480.88 56.98,481.96 C58.37,484.57 65.52,489.38 70.50,491.07 C72.70,491.82 74.64,492.51 74.80,492.60 C74.97,492.69 74.16,496.46 73.01,500.98 C71.47,507.00 71.01,509.76 72.60,511.00 ZM 432.73 494.20 C441.57,510.71 442.46,511.93 449.07,512.00 C444.58,511.95 443.65,511.52 441.19,508.89 C438.34,505.83 438.23,505.80 435.68,507.48 C433.50,508.90 431.01,509.13 420.45,508.87 C410.80,508.64 408.29,508.74 407.25,509.76 C407.91,508.14 407.42,505.44 406.07,501.02 C403.54,492.66 403.52,492.00 405.85,492.00 C408.99,492.00 417.33,487.12 420.77,483.28 C422.85,480.95 424.38,479.98 424.99,480.59 C425.52,481.12 429.00,487.24 432.73,494.20 ZM 37.03 510.42 C35.85,511.61 34.56,511.93 31.07,511.99 C33.67,511.77 36.09,511.23 37.03,510.42 ZM 406.30 510.97 C405.42,511.71 403.82,511.99 400.78,512.00 C403.44,511.99 405.23,511.74 406.30,510.97 Z" fill="rgb(158,226,251)"/>
<path d="M 145.71 123.32 L 138.91 122.91 L 139.21 115.70 L 139.50 108.50 L 339.50 108.50 L 339.79 115.75 L 340.09 123.00 L 253.69 123.00 C206.18,123.00 163.97,123.16 159.90,123.37 C155.83,123.57 149.44,123.55 145.71,123.32 ZM 225.35 373.48 C225.11,372.84 226.87,367.63 229.27,361.91 C231.67,356.18 234.73,348.86 236.07,345.64 C237.41,342.42 238.95,339.77 239.50,339.75 C240.60,339.72 253.15,369.32 253.36,372.46 C253.49,374.32 252.76,374.43 239.65,374.53 C229.95,374.61 225.67,374.29 225.35,373.48 Z" fill="rgb(246,185,13)"/>
<path d="M 0.00 0.00 L 103.50 0.00 C160.43,0.00 207.00,0.20 207.00,0.44 C207.00,1.36 189.34,6.21 184.05,6.74 C180.43,7.10 175.84,8.63 170.84,11.17 C164.07,14.59 162.08,15.11 153.62,15.67 C146.10,16.16 143.61,16.72 141.96,18.25 C140.81,19.32 136.82,21.72 133.10,23.59 C124.44,27.92 117.59,34.76 113.67,43.00 C111.08,48.44 110.51,50.99 110.17,58.65 C109.70,69.30 110.56,72.49 118.60,90.11 L 123.90 101.72 L 124.23 176.61 C124.54,250.40 124.58,251.58 126.69,257.18 C134.25,277.16 144.49,289.65 161.31,299.41 L 165.11 301.62 L 161.81 306.24 C145.10,329.60 147.02,327.83 131.77,333.89 C118.79,339.05 88.75,352.11 81.50,355.76 C67.97,362.55 56.80,372.98 48.63,386.45 C43.96,394.13 38.00,410.05 38.00,414.81 C38.00,416.30 37.55,419.09 36.99,421.01 C36.16,423.89 34.05,436.41 31.68,452.50 C31.44,454.15 29.15,467.64 26.60,482.49 C24.05,497.33 22.19,510.04 22.45,510.74 C22.92,511.94 27.20,512.31 31.07,511.99 C34.56,511.93 35.85,511.61 37.03,510.42 C37.09,510.36 37.15,510.31 37.20,510.25 C37.22,510.23 37.24,510.20 37.26,510.18 C37.42,510.00 37.59,509.80 37.75,509.58 C39.10,507.88 40.07,507.43 41.08,508.07 C41.86,508.56 48.86,508.98 56.63,508.98 C67.95,509.00 71.00,509.30 72.00,510.50 C72.15,510.69 72.35,510.85 72.60,511.00 C73.70,511.86 75.77,512.00 79.14,512.00 C79.36,512.00 79.58,512.00 79.79,512.00 C81.76,512.01 83.08,512.01 84.14,511.48 C86.39,510.34 87.41,506.76 90.93,495.50 C92.66,490.00 96.69,480.55 99.90,474.50 C104.65,465.55 106.28,463.33 108.62,462.60 C117.59,459.80 120.97,458.10 126.19,453.76 C130.82,449.91 132.75,447.32 135.92,440.73 C138.09,436.20 140.17,430.81 140.55,428.74 C141.54,423.27 143.87,420.88 154.83,414.10 C174.92,401.69 193.55,394.76 216.50,391.15 C236.27,388.05 257.63,389.18 278.00,394.40 C292.98,398.24 295.16,399.06 309.42,406.17 C330.57,416.73 335.96,421.36 339.54,432.11 C342.49,440.99 348.09,450.21 353.04,454.38 C356.83,457.57 362.26,460.23 368.96,462.19 C373.12,463.41 373.70,464.03 377.69,471.50 C383.42,482.21 387.92,493.01 390.15,501.42 C392.60,510.62 393.96,512.00 400.62,512.00 C400.69,512.00 400.75,512.00 400.82,512.00 C403.83,511.99 405.42,511.71 406.30,510.97 C406.73,510.66 407.04,510.26 407.25,509.76 C408.29,508.74 410.80,508.64 420.45,508.87 C431.01,509.13 433.50,508.90 435.68,507.48 C438.23,505.80 438.34,505.83 441.19,508.89 C443.65,511.52 444.58,511.95 449.07,512.00 C449.35,512.00 449.64,512.00 449.93,512.00 C453.21,512.00 456.15,511.56 456.48,511.03 C457.11,510.01 454.45,492.81 445.33,439.00 C438.46,398.46 435.48,390.02 422.81,375.36 C415.59,367.01 410.99,363.23 404.05,359.95 C400.70,358.36 397.92,356.33 397.56,355.20 C396.55,352.02 390.03,348.39 384.07,347.69 C381.09,347.34 374.11,345.08 368.57,342.68 C363.03,340.27 353.18,336.10 346.67,333.40 C340.17,330.71 333.87,327.57 332.67,326.44 C329.82,323.72 315.00,303.41 315.00,302.21 C315.00,301.70 317.68,299.63 320.95,297.61 C332.20,290.67 344.55,276.28 349.04,264.89 C350.19,261.99 351.99,255.99 353.05,251.56 C354.87,243.99 354.99,239.21 354.99,172.74 L 355.00 101.97 L 361.62 87.24 C367.72,73.66 368.28,71.83 368.75,63.94 C369.16,56.96 368.30,50.67 366.17,45.06 L 366.17 45.06 C363.76,38.66 359.74,33.20 354.22,28.79 C353.11,27.87 351.93,26.98 350.68,26.13 C345.10,22.29 344.11,21.91 325.50,16.51 C323.37,15.89 321.27,15.28 319.19,14.67 C318.08,14.35 316.96,14.02 315.83,13.69 L 315.80 13.68 C312.30,12.65 308.74,11.61 305.38,10.64 L 305.38 10.64 C299.26,8.84 293.49,7.13 288.14,5.54 C286.13,4.89 284.09,4.20 282.50,3.64 C281.12,3.15 279.90,2.77 278.35,2.46 C275.29,1.43 273.20,0.65 273.01,0.42 C289.95,0.33 312.23,0.26 338.25,0.22 L 469.00 0.00 L 469.00 513.00 L 0.00 513.00 ZM 425.06 446.23 C416.56,428.08 411.53,420.61 401.53,411.26 C387.59,398.21 370.65,389.92 357.47,389.69 C348.08,389.52 344.48,391.56 340.64,399.23 L 337.78 404.94 L 334.64 402.56 C330.41,399.35 311.27,389.30 304.75,386.86 C293.90,382.80 281.35,378.91 277.22,378.33 C274.87,377.99 272.73,377.37 272.46,376.94 C272.20,376.51 275.61,373.99 280.04,371.33 C284.48,368.67 291.12,364.66 294.80,362.41 C316.38,349.24 327.33,343.00 328.88,343.00 C329.85,343.00 339.15,346.62 349.55,351.05 C359.95,355.47 370.04,359.49 371.98,359.98 C379.34,361.83 384.57,364.16 386.50,366.46 C389.30,369.80 398.50,375.94 401.77,376.66 C405.77,377.53 416.37,390.00 420.48,398.67 C424.68,407.50 426.16,413.14 429.38,432.50 C432.58,451.69 433.49,460.01 432.38,459.98 C431.90,459.96 428.60,453.78 425.06,446.23 ZM 46.00 457.14 C46.00,455.56 46.46,451.85 47.03,448.89 C47.60,445.92 49.39,435.71 51.01,426.19 C53.63,410.85 54.49,407.80 58.58,399.27 C62.44,391.24 64.55,388.31 71.42,381.44 C78.30,374.56 81.17,372.50 89.07,368.75 C105.97,360.74 145.22,344.11 149.00,343.35 C150.81,342.99 153.67,344.19 159.33,347.68 C163.63,350.33 167.91,352.95 168.84,353.50 C169.77,354.05 172.10,355.44 174.01,356.59 C175.93,357.75 183.91,362.46 191.76,367.08 C199.60,371.69 205.88,375.87 205.71,376.37 C205.54,376.87 201.60,378.28 196.95,379.51 C192.30,380.74 185.57,382.74 182.00,383.96 C173.70,386.79 150.56,398.02 146.06,401.41 C144.16,402.83 142.26,404.00 141.82,404.00 C141.39,404.00 139.90,401.76 138.51,399.02 C137.12,396.28 134.84,393.29 133.45,392.38 C126.66,387.92 114.61,388.89 101.54,394.93 C91.12,399.74 85.68,403.45 76.87,411.76 C68.34,419.81 63.20,427.47 54.08,445.75 C50.17,453.59 46.76,460.00 46.49,460.00 C46.22,460.00 46.00,458.71 46.00,457.14 ZM 263.11 467.15 C262.83,424.46 262.88,422.83 264.66,423.37 C265.67,423.68 268.98,424.60 272.00,425.42 C286.57,429.35 299.27,435.11 311.37,443.29 C320.81,449.67 337.98,467.26 344.27,477.00 C349.76,485.48 358.00,501.82 358.00,504.23 C358.01,504.93 358.91,506.98 360.02,508.80 C361.99,512.03 362.16,512.09 368.26,511.80 C374.44,511.50 374.50,511.47 374.80,508.37 C375.13,505.06 368.73,487.65 364.56,480.50 C363.28,478.30 361.23,474.72 360.02,472.55 C353.94,461.69 337.32,443.42 325.00,434.08 C305.43,419.24 279.71,408.73 259.48,407.30 C252.98,406.84 251.11,407.03 249.86,408.28 C248.60,409.54 248.20,413.75 247.72,430.66 C247.12,451.74 247.66,496.94 248.60,504.74 C249.30,510.50 250.62,511.50 257.53,511.50 L 263.41 511.50 ZM 117.78 510.75 C118.34,510.06 120.43,505.45 122.42,500.50 C134.58,470.23 155.49,447.75 185.00,433.21 C193.57,428.99 209.11,424.00 213.70,424.00 L 216.19 424.00 L 215.88 467.75 L 215.57 511.50 L 221.74 511.80 C222.15,511.82 222.54,511.84 222.92,511.86 C224.94,511.98 226.47,512.07 227.63,511.46 C231.24,509.55 231.25,500.86 231.31,465.12 C231.31,462.97 231.32,460.73 231.32,458.39 C231.33,454.36 231.34,450.64 231.35,447.21 C231.45,417.67 231.48,409.39 227.97,407.43 C226.61,406.66 224.71,406.85 222.07,407.11 C221.28,407.19 220.43,407.28 219.50,407.35 C209.91,408.05 196.11,411.66 184.28,416.56 C152.50,429.72 125.67,455.51 111.37,486.65 C104.98,500.58 102.61,509.28 104.67,511.33 C105.87,512.54 116.71,512.05 117.78,510.75 Z" fill="rgb(248,252,254)"/>
<path d="M 76.50 477.27 C70.75,475.83 65.00,468.19 65.00,462.01 C65.00,458.78 69.42,449.00 70.88,449.00 C71.35,449.00 74.76,451.03 78.45,453.50 C82.14,455.98 86.25,458.28 87.58,458.61 C88.91,458.94 90.00,459.34 90.00,459.48 C90.00,461.09 80.51,477.97 79.65,477.88 C79.02,477.82 77.60,477.54 76.50,477.27 ZM 393.72 469.01 C391.13,464.03 389.00,459.79 389.00,459.59 C389.00,459.38 390.09,458.94 391.42,458.61 C392.75,458.28 396.86,455.98 400.55,453.50 C404.24,451.03 407.81,449.00 408.48,449.00 C410.55,449.00 413.50,457.08 413.45,462.62 C413.37,470.26 408.87,475.83 401.47,477.41 C398.51,478.05 398.35,477.88 393.72,469.01 ZM 93.02 443.94 C89.46,442.25 84.62,439.29 82.27,437.36 L 77.98 433.85 L 81.24 429.31 C86.75,421.65 100.88,411.46 111.63,407.41 C117.07,405.37 125.00,404.15 125.00,405.36 C125.00,405.56 125.45,408.11 126.00,411.02 C127.15,417.06 125.82,426.91 122.95,433.61 C121.02,438.12 114.81,444.72 111.18,446.11 C106.51,447.91 99.70,447.09 93.02,443.94 ZM 366.50 445.16 C358.14,440.07 352.90,429.35 352.73,417.00 C352.58,406.44 353.22,405.00 358.06,405.00 C366.92,405.00 382.71,413.71 393.75,424.69 C397.74,428.66 401.00,432.53 401.00,433.31 C401.00,434.96 390.97,442.20 384.81,445.00 C379.19,447.55 370.54,447.63 366.50,445.16 ZM 232.50 307.53 C225.68,305.28 199.88,297.31 192.00,295.01 C180.17,291.57 171.06,287.95 164.78,284.21 C157.52,279.89 148.83,270.36 144.98,262.50 C139.28,250.86 139.00,248.22 139.00,205.79 C139.00,184.46 139.20,167.00 139.45,167.00 C139.70,167.00 141.88,168.34 144.31,169.97 C149.96,173.79 156.19,176.45 162.83,177.87 C166.47,178.65 190.21,179.00 239.80,178.99 C299.59,178.97 312.54,178.72 317.78,177.49 C324.61,175.88 330.69,173.13 335.68,169.39 C337.43,168.07 339.12,167.00 339.43,167.00 C339.74,167.00 340.00,184.30 340.00,205.44 C340.00,249.36 339.58,252.74 332.69,264.89 C325.08,278.29 311.87,287.88 293.91,293.03 C280.97,296.74 279.62,297.15 273.50,299.21 C259.53,303.90 241.47,308.99 239.08,308.92 C237.66,308.88 234.70,308.25 232.50,307.53 ZM 257.23 268.21 C265.99,263.90 274.00,256.40 274.00,252.51 C274.00,248.59 270.44,245.00 266.57,245.00 C264.40,245.00 261.87,246.32 258.02,249.48 C245.94,259.40 233.57,259.42 220.87,249.56 C214.37,244.51 211.56,243.99 207.63,247.07 C202.27,251.30 205.49,258.26 215.92,264.95 C224.63,270.54 230.33,272.08 241.08,271.74 C249.52,271.48 251.44,271.06 257.23,268.21 Z" fill="rgb(250,204,160)"/>
</g>
</svg>